PathFileType	4	(X/Y/Z)	Patient4_TMGait_0pt4_03_right_36.trc.trc
DataRate	CameraRate	NumFrames	NumMarkers	Units	OrigDataRate	OrigDataStartFrame	OrigNumFrames
72.916666666667	72.916666666667	4	33	mm	72.916666666667	18	       141
Frame#	Time	Sacral			L.Shoulder			Chest			R.Shoulder			Neck			R.ASIS			L.ASIS			R.Thigh.Superior			R.Thigh.Lateral			R.Thigh.Inferior			R.Patella			L.Thigh.Superior			L.Thigh.Lateral			L.Thigh.Inferior			L.Patella			L.Shank.Superior			L.Shank.Lateral			L.Shank.Inferior			R.Shank.Superior			R.Shank.Lateral			R.Shank.Inferior			R.Heel			R.Midfoot.Superior			R.Midfoot.Lateral			R.Toe			L.Heel			L.Midfoot.Lateral			L.Midfoot.Superior			L.Toe			L.Elbow			L.Wrist			R.Elbow			R.Wrist			
		X1	Y1	Z1	X2	Y2	Z2	X3	Y3	Z3	X4	Y4	Z4	X5	Y5	Z5	X6	Y6	Z6	X7	Y7	Z7	X8	Y8	Z8	X9	Y9	Z9	X10	Y10	Z10	X11	Y11	Z11	X12	Y12	Z12	X13	Y13	Z13	X14	Y14	Z14	X15	Y15	Z15	X16	Y16	Z16	X17	Y17	Z17	X18	Y18	Z18	X19	Y19	Z19	X20	Y20	Z20	X21	Y21	Z21	X22	Y22	Z22	X23	Y23	Z23	X24	Y24	Z24	X25	Y25	Z25	X26	Y26	Z26	X27	Y27	Z27	X28	Y28	Z28	X29	Y29	Z29	X30	Y30	Z30	X31	Y31	Z31	X32	Y32	Z32	X33	Y33	Z33	

18	47.223142857143	850.562655911762	1009.981830400423	410.272491872987	1057.063528692208	1428.166934699597	220.410336872902	1142.905714163054	1366.534969165984	393.807961873219	1044.897235937449	1449.992856655401	555.867552150476	1032.527530255254	1497.045051692502	372.070902935251	1073.710052610575	948.296901814310	541.854278916230	1073.692029107049	962.530550345666	265.867621128394	1137.190071289461	763.071920041933	520.348558809176	1088.349947718861	650.274291662749	601.716983857692	1170.615870721868	601.715434548885	519.589345909305	1199.995771722746	523.627927073981	538.924864656682	1091.230334032113	741.473846234655	296.698295597218	986.865683119219	636.834999671775	230.884490996673	1056.439419487366	550.198411830693	295.054557863691	1046.331698193990	483.611113813000	303.817964464688	1017.751582034901	414.475599398910	295.519243060903	920.815983187405	304.101372794881	246.485702937898	968.612227287944	190.989285092984	318.054141990943	1187.759928568501	439.669398407517	554.925108407184	1142.226284254941	328.421470231932	628.154958180906	1212.153392500354	241.655805271495	576.856237819665	1126.465649123996	50.967956498673	562.161640339838	1290.439269427652	128.027950731417	590.165297734644	1215.527820340150	51.723435087132	630.124887154991	1417.236732914876	93.742578116303	608.144058528554	838.682965857995	38.801073115790	370.820097297478	906.531378343844	34.832797742032	284.932547706634	992.324916799064	95.663060851557	307.179374744615	1118.767490461397	41.765795126294	269.843268594648	1093.446550801314	1088.164729850872	80.647903820609	1296.088407422467	919.895271581890	74.545219679187	904.207129017194	1140.465188782622	680.251868484071	902.031712206788	878.042112618482	697.389929028243	
19	47.236857142857	851.461124521697	1009.052027694448	411.542126118289	1057.124618796983	1427.716674479327	222.530809147832	1143.051760512419	1366.102550704809	395.882960419631	1044.810023310951	1449.286624975361	557.956497718885	1032.580507148261	1496.436097654134	374.254681789389	1074.463070604837	947.160390788017	543.286903655882	1074.592152793498	962.031554788340	267.341086085033	1136.975037863085	761.053333813859	522.181729703083	1085.831784297766	647.738520839897	601.900658332525	1168.928606876518	599.558217198805	520.566986824745	1197.373112634630	521.798578147747	539.046699936110	1091.013315200883	740.565543386727	297.798525582968	985.679134296333	636.582946206403	231.808718506362	1054.353480889249	549.392796323812	295.915311648357	1043.771115565177	482.781861302657	304.527536294569	1014.650137644392	413.909726486297	296.155454524205	916.913437286381	304.310398636906	246.952198832631	963.859658417019	190.679152887875	318.262625469080	1185.274063824843	437.426834200993	554.482206437585	1139.316140374324	325.779045186627	626.548986956578	1209.679849158094	239.477389025253	575.237102252455	1124.373617498643	49.352865089958	559.163829774423	1288.209013842634	125.614257695928	587.859754036841	1213.017736124385	49.820100831582	627.456447634573	1414.733342166381	91.042743571451	606.152081384182	833.167524134646	38.852299032481	370.798223474516	901.002570167848	34.849759397497	284.926806134710	986.827226969590	95.598289958485	307.221418292218	1113.235591724596	41.615911938732	269.854855857464	1094.009951633913	1087.223621683811	83.846528608225	1297.430806459980	919.824232320348	78.978675214751	905.321633480527	1139.203492725496	682.368937130746	905.565988883665	876.802418919876	699.693641714899	
20	47.250571428571	852.591822411930	1007.971205082425	413.164717735850	1056.928240789163	1427.248662037162	224.878186049790	1143.143273135501	1365.729579370680	398.105763075711	1044.714826943915	1448.539593554027	560.290057116251	1032.457504148033	1495.782358630662	376.679013186187	1075.604936278234	945.986617103888	544.815767050879	1075.641239794568	961.575491775079	268.947834185519	1137.624344898295	759.262932876547	523.926530913537	1084.156290910266	645.188329613010	601.672536998887	1168.241980020465	597.617669931274	521.272572097133	1195.581786714470	519.706286528123	538.823021686116	1090.925421523565	739.619420912637	298.895496223530	984.512974583627	636.336858737484	232.856408696947	1052.383694470175	548.561964938927	296.764262918040	1041.355756186274	481.905695888286	305.239535061824	1011.635071825942	413.321343393056	296.821056590121	913.008170806764	304.565390189019	247.513507949197	959.123634023509	190.370110644735	318.480231152351	1182.865256356941	434.668596013154	553.603989987919	1135.414802324428	323.113855727055	624.461025971425	1205.257502697803	236.639203978463	573.160419863327	1118.446149932141	48.125248809273	555.938364792102	1282.711964105109	122.235850390179	585.110331079946	1206.670405729747	47.772820453864	624.573554465847	1408.668454152551	86.369849424957	603.788388190390	827.655106081613	38.899896105169	370.778532213014	895.479224197068	34.875350850207	284.928032084099	981.326131715121	95.540776147596	307.262508089926	1107.697741268107	41.467298081143	269.857214935738	1094.225580722107	1086.221604428532	87.285743475049	1298.242815150350	919.474305743254	83.546176080159	907.018861742212	1137.650241288838	684.877389248571	910.487232495354	875.304299000332	702.287250459685	
21	47.264285714286	853.955280783830	1006.751898958848	415.128625714207	1056.508603253884	1426.760128563692	227.451383579463	1143.199753208371	1365.410511890731	400.482060545715	1044.625083292477	1447.749507729599	562.863073764451	1032.189269592862	1495.088351353635	379.342833296373	1077.126015912644	944.794535902446	546.438769789920	1076.861808438605	961.175035354503	270.677124516570	1139.035103927568	757.616482567162	525.572853773237	1083.241132405622	642.662606776685	601.121635465814	1168.381335580106	595.844698126265	521.713828077076	1194.478468117639	517.373236644413	538.246970729073	1090.957835926494	738.636842180359	299.970417183533	983.361057328723	636.104309394889	234.025426700658	1050.532058761066	547.709999442619	297.593553479551	1039.093356493785	480.983442425805	305.947300137753	1008.712358010961	412.712374607409	297.512607102658	909.101413702288	304.869721000870	248.173354307458	954.405341091859	190.065751401486	318.710500866591	1180.572801869094	431.497768817084	552.367462255249	1130.857754081369	320.420179734386	622.067756115919	1199.390613933352	233.246818364592	570.745277676074	1109.577167802640	47.098655460371	552.717616729121	1274.715762911165	118.153872633702	582.032114460430	1197.446748671442	45.633427436315	621.658567953672	1399.952509905638	80.298828251968	601.114026045635	822.146690405493	38.948420914962	370.758680078753	889.965351645992	34.911214017994	284.938563829344	975.825955087937	95.494537410510	307.304371544651	1102.158313431188	41.318723730529	269.848845398120	1094.070171178848	1085.157162643108	90.940515565421	1298.508438999289	918.847455854163	88.184457016677	909.233873557676	1135.856376115488	687.765604715309	916.711171447014	873.623920535914	705.171068890691	
